<svg xmlns="http://www.w3.org/2000/svg" xmlns:xlink="http://www.w3.org/1999/xlink" width="512" zoomAndPan="magnify" viewBox="0 0 384 383.999986" height="512" preserveAspectRatio="xMidYMid meet" version="1.0"><defs><clipPath id="4890ba5a00"><path d="M 192 0 C 85.960938 0 0 85.960938 0 192 C 0 298.039062 85.960938 384 192 384 C 298.039062 384 384 298.039062 384 192 C 384 85.960938 298.039062 0 192 0 Z M 192 0 " clip-rule="nonzero"/></clipPath><clipPath id="abd48a698b"><path d="M 79.332031 79.332031 L 304.667969 79.332031 L 304.667969 304.667969 L 79.332031 304.667969 Z M 79.332031 79.332031 " clip-rule="nonzero"/></clipPath><clipPath id="078623f510"><path d="M 192 79.332031 L 227.851562 156.148438 L 304.667969 192 L 227.851562 227.851562 L 192 304.667969 L 156.148438 227.851562 L 79.332031 192 L 156.148438 156.148438 Z M 192 79.332031 " clip-rule="nonzero"/></clipPath><clipPath id="5e278c922c"><path d="M 0.332031 0.332031 L 225.667969 0.332031 L 225.667969 225.667969 L 0.332031 225.667969 Z M 0.332031 0.332031 " clip-rule="nonzero"/></clipPath><clipPath id="f52076459c"><path d="M 113 0.332031 L 148.851562 77.148438 L 225.667969 113 L 148.851562 148.851562 L 113 225.667969 L 77.148438 148.851562 L 0.332031 113 L 77.148438 77.148438 Z M 113 0.332031 " clip-rule="nonzero"/></clipPath><clipPath id="0e1b3fd247"><rect x="0" width="226" y="0" height="226"/></clipPath></defs><g clip-path="url(#4890ba5a00)"><path stroke-linecap="butt" transform="matrix(0.75, 0, 0, 0.75, 0.0000072, 0)" fill="none" stroke-linejoin="miter" d="M 256.000011 0 C 114.614583 0 -0.0000096 114.614592 -0.0000096 256.00002 C -0.0000096 397.385448 114.614583 512.000041 256.000011 512.000041 C 397.385439 512.000041 512.000031 397.385448 512.000031 256.00002 C 512.000031 114.614592 397.385439 0 256.000011 0 Z M 256.000011 0 " stroke="#ffffff" stroke-width="100" stroke-opacity="1" stroke-miterlimit="4"/></g><g clip-path="url(#abd48a698b)"><g clip-path="url(#078623f510)"><g transform="matrix(1, 0, 0, 1, 79, 79)"><g clip-path="url(#0e1b3fd247)"><g clip-path="url(#5e278c922c)"><g clip-path="url(#f52076459c)"><path fill="#ffffff" d="M 0.332031 0.332031 L 225.667969 0.332031 L 225.667969 225.667969 L 0.332031 225.667969 Z M 0.332031 0.332031 " fill-opacity="1" fill-rule="nonzero"/></g></g></g></g></g></g></svg>